<svg xmlns="http://www.w3.org/2000/svg" viewBox="0 0 48 48" width="48" height="48">
  <!-- Info Icon for Transparency -->
  <circle cx="24" cy="24" r="20" fill="#4BA3A3" opacity="0.2"/>
  <path d="M24 4C12.95 4 4 12.95 4 24C4 35.05 12.95 44 24 44C35.05 44 44 35.05 44 24C44 12.95 35.05 4 24 4ZM26 36H22V32H22V36H18V22H26V36ZM22 20V18C22 15.79 23.79 14 26 14V18C26 19.1 25.1 20 24 20H22ZM24 12C20.69 12 18 14.69 18 18H22C22 17.45 22.45 16 24 16C25.55 16 26 17.45 26 18H30C30 14.69 27.31 12 24 12Z" fill="#4BA3A3"/>
</svg>