<svg xmlns="http://www.w3.org/2000/svg" viewBox="0 0 48 48" width="48" height="48">
  <!-- Users/Community Icon -->
  <path d="M16 20C18.2 20 20 18.2 20 16C20 13.8 18.2 12 16 12C13.8 12 12 13.8 12 16C12 18.2 13.8 20 16 20ZM32 20C34.2 20 36 18.2 36 16C36 13.8 34.2 12 32 12C29.8 12 28 13.8 28 16C28 18.2 29.8 20 32 20ZM16 22C12.7 22 8 23.8 8 28V30H24V28C24 23.8 19.3 22 16 22ZM32 22C28.7 22 24 23.8 24 28V30H40V28C40 23.8 35.3 22 32 22ZM32 24C37.5 24 44 26.5 44 33V38H4V33C4 26.5 10.5 24 16 24H32Z" fill="#5B8FB9"/>
</svg>