<svg xmlns="http://www.w3.org/2000/svg" viewBox="0 0 24 24" width="24" height="24">
  <!-- Attach/File Icon -->
  <path d="M21.41 11.58L12.41 2.58C12.05 2.22 11.55 2 11 2H4C2.9 2 2 2.9 2 4V20C2 21.1 2.9 22 4 22H11C11.55 22 12.05 21.78 12.41 21.41L21.41 12.41C21.83 11.99 22 11.47 22 11C22 10.53 21.83 10.01 21.41 9.59L14.59 2.79C14.21 2.41 13.71 2.21 13.17 2.24C12.63 2.27 12.15 2.52 11.79 2.88L11 3.67L11.79 4.46C12.15 4.82 12.63 5.07 13.17 5.1C13.71 5.13 14.21 4.93 14.59 4.55L21.41 11.57C21.83 11.95 22 12.47 22 13C22 13.47 21.83 13.99 21.41 14.41L14.59 21.21C14.21 21.59 13.71 21.79 13.17 21.76C12.63 21.73 12.15 21.48 11.79 21.12L11 20.33L10.21 21.12C9.85 21.48 9.37 21.73 8.83 21.76C8.29 21.79 7.79 21.59 7.41 21.21L0.59 14.41C0.17 14.03 0 13.51 0 13C0 12.53 0.17 12.01 0.59 11.63L7.41 4.83C7.79 4.45 8.29 4.25 8.83 4.28C9.37 4.31 9.85 4.56 10.21 4.92L10.79 5.5L10.21 6.08C9.85 6.44 9.37 6.69 8.83 6.72C8.29 6.75 7.79 6.55 7.41 6.17L0.59 13.01C0.21 13.39 0.04 13.9 0.04 14.38C0.04 14.86 0.21 15.37 0.59 15.75L7.41 22.55C7.79 22.93 8.29 23.13 8.83 23.1C9.37 23.07 9.85 22.82 10.21 22.46L11 21.67L11.79 22.46C12.15 22.82 12.63 23.07 13.17 23.1C13.71 23.13 14.21 22.93 14.59 22.55L21.41 15.75C21.83 15.37 22 14.85 22 14.38C22 13.9 21.83 13.38 21.41 13L12.41 4L12 4.41L2 14.41V20H4L14 10L14.59 10.59L20.59 16.59L21.41 17.41L16.59 12.59L16 12L21.41 11.58Z" fill="#6B7280"/>
</svg>